<?xml version="1.0" encoding="utf-8"?>
<svg version="1.1" xmlns="http://www.w3.org/2000/svg" xmlns:xlink="http://www.w3.org/1999/xlink" x="0px" y="0px"
	 viewBox="0 0 230 85" style="enable-background:new 0 0 230 85;" xml:space="preserve">
<g>
</g>
<g>
	<g>
		<path d="M82.8,31.9c2.2-0.4,4.4,0,6.6,1.9c-0.8-2.2-1.6-4.4-2.3-6.5c-1.8-1.2-3.6-1.2-5.5-0.5C82,28.5,82.4,30.2,82.8,31.9z"/>
		<path d="M85.1,42.4c3,0.2,6,1.3,9,4.5c-0.8-2.2-1.6-4.4-2.3-6.5c-2.6-2.5-5.2-3.3-7.8-3.2C84.3,38.9,84.7,40.6,85.1,42.4z"/>
		<path d="M69.4,37.2c2.2-0.4,4.8-1.5,6.5-2.6c0-1.6,0-3.1,0-4.7c-1.6,1.3-3.6,2.5-5.4,3.2C70.1,34.4,69.7,35.8,69.4,37.2z"/>
		<path d="M67,45.4c3,0.2,6.4-0.7,8.8-1.5c0-1.6,0-3.1,0-4.7c-2.5,1-5.1,2-7.7,2.1C67.7,42.7,67.4,44.1,67,45.4z"/>
		<path d="M75.8,39.2c2.5-1,5.3-2,7.9-2.1c-0.4-1.7-0.9-3.5-1.2-5.2c-2.2,0.4-4.2,1.5-6.7,2.6C75.8,36.1,75.8,37.7,75.8,39.2z"/>
		<path d="M75.8,48.6c3.3-0.7,6.9-1.4,10.3-1c-0.4-1.7-0.9-3.5-1.2-5.2c-3-0.2-5.7,0.7-9,1.5C75.8,45.5,75.8,47,75.8,48.6z"/>
		<path d="M60.5,38.1c2.6,2.5,5.2,3.3,7.8,3.2c0.4-1.4,0.8-2.8,1.2-4.1c-2.2,0.4-4.4,0-6.6-1.9C62.1,36.2,61.3,37.2,60.5,38.1z"/>
		<path d="M55.9,43.7c3.4,3.9,6.8,5.4,10.1,5.9c0.4-1.4,0.8-2.8,1.2-4.1c-3-0.2-6-1.3-9-4.5C57.4,41.9,56.6,42.8,55.9,43.7z"/>
		<polygon points="103,62.8 106.7,73.4 108.3,72.9 103.8,60.3 		"/>
		<polygon points="99.5,48 91.8,26.5 90.3,27 98.6,50.4 		"/>
		<rect x="66.6" y="48.5" transform="matrix(0.334 -0.9426 0.9426 0.334 21.3826 130.5174)" width="72.8" height="3.3"/>
		<path d="M128.2,24.7c-3.8-0.6-7.5,0-11.3,3.2c1.3-3.7,2.7-7.5,4-11.2c3.1-2,6.2-2,9.3-0.9C129.5,18.7,128.9,21.7,128.2,24.7z"/>
		<path d="M124.2,42.5c-5.1,0.3-10.2,2.3-15.3,7.7c1.3-3.7,2.7-7.5,4-11.2c4.4-4.3,8.9-5.6,13.3-5.5
			C125.6,36.5,124.9,39.5,124.2,42.5z"/>
		<path d="M150.7,33.6c-3.8-0.6-7.3-2.5-11.4-4.5c0-2.7,0-5.3,0-8c3.3,2.1,6.3,4.3,9.4,5.4C149.4,28.9,150.1,31.2,150.7,33.6z"/>
		<path d="M154.7,47.7c-5.1,0.3-10.5-1.2-15.4-2.6c0-2.7,0-5.3,0-8c4.9,1.7,8.9,3.4,13.4,3.5C153.3,43,154.1,45.3,154.7,47.7z"/>
		<path d="M139.3,37.1c-4.1-1.7-8.8-3.4-13.2-3.5c0.7-3,1.3-5.9,1.9-8.9c3.8,0.6,8,2.5,11.3,4.5C139.3,31.8,139.3,34.4,139.3,37.1z"
			/>
		<path d="M139.3,53.1c-5.8-1.2-11.4-2.4-17.2-1.7c0.7-3,1.3-5.9,1.9-8.9c5.1-0.3,10.3,1.2,15.3,2.6
			C139.3,47.8,139.3,50.4,139.3,53.1z"/>
		<path d="M166.2,35.2c-4.4,4.3-8.9,5.6-13.3,5.5c-0.7-2.4-1.3-4.7-2-7.1c3.8,0.6,7.5,0,11.3-3.2C163.5,32,164.8,33.6,166.2,35.2z"
			/>
		<path d="M174.1,44.8c-5.8,6.6-11.5,9.3-17.3,10c-0.7-2.4-1.3-4.7-2-7.1c5.1-0.3,10.2-2.3,15.3-7.7
			C171.5,41.6,172.8,43.2,174.1,44.8z"/>
	</g>
</g>
</svg>
