<?xml version="1.0" encoding="utf-8"?>
<svg version="1.1" xmlns="http://www.w3.org/2000/svg" xmlns:xlink="http://www.w3.org/1999/xlink" x="0px" y="0px"
	 viewBox="0 0 230 85" style="enable-background:new 0 0 230 85;" xml:space="preserve">
<g>
</g>
	<g>
	<g>
		<path d="M123.9,80.5c-0.9-0.1-1.8-0.2-2.8-0.3c-3.5-0.4-7.7-0.9-12.5-1.6c-4.8-0.7-10.2-1.5-16.1-2.7c-5.8-1.2-12.2-2.6-18.5-5
			c-1.6-0.6-3.1-1.3-4.6-2.1c-1.5-0.8-2.9-1.7-3.9-2.8c-0.5-0.5-0.9-1.1-1.1-1.7c-0.1-0.1-0.1-0.3-0.1-0.4c0-0.1,0-0.1,0-0.2
			c0,0,0-0.2,0-0.3c0-0.2,0-0.4,0.1-0.6c0.2-0.4,0.7-0.9,1.3-1.3c0.7-0.4,1.4-0.8,2.2-1.1c3.3-1.2,7.1-1.8,10.8-2.4
			c3.8-0.5,7.7-0.9,11.6-1.1c6.9-0.5,13.9-0.8,20.9-1c-0.3-1-0.6-2-0.7-2.9c-6.8,0.2-13.7,0.4-20.4,0.8c-4,0.3-7.9,0.6-11.8,1.1
			c-3.9,0.5-7.7,1.1-11.5,2.5c-0.9,0.3-1.9,0.8-2.8,1.3c-0.9,0.6-1.9,1.3-2.6,2.6c-0.3,0.6-0.5,1.4-0.5,2.1c0,0.1,0,0.2,0,0.4
			c0,0.2,0,0.4,0.1,0.5c0.1,0.3,0.1,0.6,0.2,0.9c0.4,1.2,1.1,2.1,1.8,2.9c1.5,1.6,3.1,2.6,4.7,3.5c1.6,0.9,3.3,1.6,5,2.3
			c6.6,2.5,13.1,4,19,5.3c5.9,1.2,11.4,2.1,16.3,2.9c4.9,0.7,9.1,1.3,12.6,1.7c2.3,0.3,4.2,0.5,5.8,0.6
			C125.7,83.4,124.9,82,123.9,80.5z"/>
		<path d="M97.4,38.5c0,0,4,0.1,11.1,0.2c1.6,0,3.3,0,5.1,0.1c0.4-0.7,0.9-1.4,1.4-2c-2.4,0-4.6,0-6.5-0.1c-7,0-11-0.1-11-0.1l0,0
			c-0.5,0-0.9,0.4-1,0.9C96.5,38,96.9,38.5,97.4,38.5z"/>
		<path d="M169,47.3c-0.1-1.3-0.8-2.4-1.6-3.1c-1.6-1.5-3.4-2.2-5.1-2.9c-1.7-0.6-3.5-1.1-5.2-1.5c-2.4-0.5-4.7-0.9-7-1.2
			c0.5,0.8,1,1.7,1.4,2.6c1.7,0.3,3.4,0.6,5.1,1c1.6,0.4,3.3,0.8,4.9,1.4c1.6,0.6,3.1,1.3,4.2,2.4c0.5,0.5,0.8,1.1,0.9,1.6
			c0,0.1,0,0.1,0,0.2c0-0.1,0,0.2,0,0.2c0-0.1,0,0.1-0.1,0.1c-0.1,0.2-0.3,0.4-0.6,0.6c-1.2,0.8-3.1,1.3-4.8,1.6
			c-2.5,0.5-5,0.8-7.6,1.1c-0.1,0.8-0.2,1.7-0.5,2.7c2.9-0.3,5.8-0.7,8.6-1.3c0.9-0.2,1.9-0.4,2.8-0.8c0.9-0.3,1.9-0.7,2.8-1.3
			c0.5-0.3,1-0.7,1.4-1.3c0.2-0.3,0.3-0.6,0.4-1.1c0-0.3,0-0.2,0-0.5C169,47.6,169,47.5,169,47.3z"/>
		<path d="M131.8,32.8c-9.6,0-17.4,7.8-17.4,17.4S131.8,85,131.8,85s17.4-25.2,17.4-34.8S141.5,32.8,131.8,32.8z M131.8,58
			c-4.4,0-8-3.6-8-8c0-4.4,3.6-8,8-8c4.4,0,8,3.6,8,8C139.8,54.4,136.3,58,131.8,58z"/>
		<path d="M91.7,10c-5.2,0-9.5,4.3-9.5,9.5c0,5.2,9.5,19,9.5,19s9.5-13.8,9.5-19C101.2,14.3,97,10,91.7,10z M91.7,23.8
			c-2.4,0-4.4-2-4.4-4.4c0-2.4,2-4.4,4.4-4.4c2.4,0,4.4,2,4.4,4.4C96.1,21.8,94.1,23.8,91.7,23.8z"/>
	</g>
</g>
</svg>
