<?xml version="1.0" encoding="utf-8"?>
<!-- Generator: Adobe Illustrator 20.1.0, SVG Export Plug-In . SVG Version: 6.00 Build 0)  -->
<svg version="1.1" xmlns="http://www.w3.org/2000/svg" xmlns:xlink="http://www.w3.org/1999/xlink" x="0px" y="0px"
	 viewBox="0 0 230 85" style="enable-background:new 0 0 230 85;" xml:space="preserve">
<g>
</g>
	<g>
	<g>
		<path d="M68.4,70.5c0,0,0.7-0.3,2-0.8c1.3-0.5,3.2-1.2,5.6-2.1c2.4-0.9,5.3-2,8.6-3.3c3.3-1.3,7-2.7,11-4.2c1-0.4,1.9-0.7,2.9-1.1
			c1-0.4,2-0.8,3-1.1c1-0.4,2-0.8,3.1-1.2c1-0.4,2.1-0.8,3.2-1.2c0.4-0.2,0.9-0.4,1.3-0.5c0.4-0.2,0.9-0.4,1.3-0.5
			c0.4-0.2,0.8-0.3,1.2-0.5c0.4-0.2,0.8-0.3,1.1-0.5c0.4-0.2,0.7-0.3,1-0.5c0.3-0.2,0.7-0.3,1-0.5c0.3-0.2,0.6-0.3,0.8-0.5
			c0.3-0.1,0.5-0.3,0.7-0.4c0.2-0.1,0.4-0.3,0.6-0.4c0.2-0.1,0.3-0.2,0.4-0.3c0.1-0.1,0.2-0.2,0.3-0.2c0.1-0.1,0.1-0.1,0.2-0.1
			c0,0,0.1-0.1,0.1-0.1c0,0,0.1,0,0.1,0c0,0,0.1,0,0.1,0c0,0,0.1,0,0.1-0.1c0,0,0-0.1-0.1-0.2c-0.1-0.1-0.1-0.2-0.3-0.3
			c-0.1-0.1-0.3-0.2-0.5-0.4c-0.2-0.1-0.5-0.3-0.8-0.5c-0.3-0.2-0.7-0.3-1-0.5c-0.4-0.2-0.8-0.4-1.3-0.6c-0.5-0.2-0.9-0.4-1.5-0.6
			c-0.5-0.2-1.1-0.4-1.6-0.6c-0.6-0.2-1.2-0.5-1.8-0.7c-0.6-0.2-1.2-0.5-1.9-0.7c-0.6-0.3-1.3-0.5-2-0.8c-0.7-0.3-1.4-0.5-2.1-0.8
			c-0.7-0.3-1.4-0.6-2.1-0.9c-0.7-0.3-1.4-0.7-2.2-1c-0.7-0.4-1.4-0.7-2.2-1.1c-0.7-0.4-1.4-0.8-2.1-1.3c-0.3-0.2-0.7-0.5-1-0.7
			c-0.3-0.2-0.6-0.5-0.9-0.7c-0.3-0.3-0.6-0.5-0.8-0.8c-0.3-0.3-0.5-0.5-0.7-0.8c-0.2-0.3-0.4-0.6-0.6-0.8c-0.2-0.3-0.3-0.6-0.5-0.9
			c-0.1-0.3-0.2-0.6-0.3-0.9c-0.1-0.3-0.1-0.6-0.2-0.9c0-0.3,0-0.6,0-0.9c0-0.3,0.1-0.6,0.2-0.9c0.1-0.3,0.2-0.6,0.3-0.8
			c0.1-0.3,0.3-0.5,0.4-0.8c0.2-0.3,0.3-0.5,0.5-0.8c0.2-0.2,0.4-0.5,0.6-0.7c0.2-0.2,0.4-0.5,0.7-0.7c0.2-0.2,0.5-0.4,0.7-0.7
			c0.5-0.4,1-0.8,1.6-1.2c0.5-0.4,1.1-0.7,1.7-1.1c0.6-0.3,1.2-0.7,1.7-1c0.6-0.3,1.2-0.6,1.8-0.9c0.6-0.3,1.2-0.6,1.8-0.8
			c0.6-0.3,1.2-0.5,1.8-0.8c0.6-0.2,1.2-0.5,1.8-0.7c0.6-0.2,1.2-0.5,1.8-0.7c0.3-0.1,0.6-0.2,0.9-0.3c0.3-0.1,0.6-0.2,0.9-0.3
			c0.3-0.1,0.6-0.2,0.9-0.3c0.3-0.1,0.6-0.2,0.9-0.3c0.3-0.1,0.5-0.2,0.7-0.3c0.2-0.1,0.5-0.2,0.7-0.3c0.2-0.1,0.5-0.2,0.7-0.3
			c0.2-0.1,0.5-0.2,0.7-0.3c0.5-0.2,1-0.3,1.4-0.5c0.5-0.2,0.9-0.3,1.4-0.5c0.5-0.2,0.9-0.3,1.4-0.5c0.5-0.2,0.9-0.3,1.3-0.5
			c3.5-1.2,6.7-2.4,9.6-3.4c2.8-1,5.3-1.8,7.3-2.5c2-0.7,3.6-1.3,4.6-1.6c1.1-0.4,1.6-0.6,1.6-0.6l2.3,0.8c0,0-0.6,0.2-1.6,0.6
			c-1.1,0.4-2.6,0.9-4.6,1.6c-2,0.7-4.4,1.6-7.2,2.6c-2.8,1-6,2.1-9.5,3.4c-0.4,0.2-0.9,0.3-1.3,0.5c-0.5,0.2-0.9,0.3-1.4,0.5
			c-0.5,0.2-0.9,0.3-1.4,0.5c-0.5,0.2-0.9,0.3-1.4,0.5c-0.2,0.1-0.5,0.2-0.7,0.3c-0.2,0.1-0.5,0.2-0.7,0.3c-0.2,0.1-0.5,0.2-0.7,0.3
			c-0.2,0.1-0.5,0.2-0.7,0.3c-0.3,0.1-0.5,0.2-0.8,0.3c-0.3,0.1-0.6,0.2-0.8,0.3c-0.3,0.1-0.6,0.2-0.8,0.3c-0.3,0.1-0.6,0.2-0.8,0.3
			c-0.6,0.2-1.1,0.4-1.7,0.7c-0.6,0.2-1.1,0.5-1.7,0.7c-0.6,0.2-1.1,0.5-1.7,0.7c-0.6,0.3-1.1,0.5-1.7,0.8c-0.6,0.3-1.1,0.6-1.7,0.9
			c-0.5,0.3-1.1,0.6-1.6,0.9c-0.5,0.3-1,0.7-1.5,1c-0.5,0.4-1,0.7-1.4,1.1c-0.2,0.2-0.4,0.4-0.7,0.6c-0.2,0.2-0.4,0.4-0.6,0.6
			c-0.2,0.2-0.4,0.4-0.5,0.7c-0.2,0.2-0.3,0.5-0.5,0.7c-0.1,0.2-0.3,0.5-0.4,0.7c-0.1,0.2-0.2,0.5-0.3,0.8c-0.1,0.3-0.1,0.5-0.1,0.8
			c0,0.3,0,0.5,0,0.8c0,0.3,0.1,0.5,0.1,0.8c0.1,0.3,0.2,0.5,0.3,0.8c0.1,0.3,0.3,0.5,0.4,0.8c0.2,0.3,0.4,0.5,0.6,0.8
			c0.2,0.2,0.4,0.5,0.7,0.7c0.2,0.2,0.5,0.5,0.8,0.7c0.3,0.2,0.6,0.4,0.8,0.7c0.3,0.2,0.6,0.4,0.9,0.6c0.6,0.4,1.3,0.8,1.9,1.2
			c0.7,0.4,1.3,0.7,2,1c0.7,0.3,1.4,0.6,2.1,0.9c0.7,0.3,1.4,0.6,2,0.9c0.7,0.3,1.4,0.5,2,0.8c0.7,0.3,1.3,0.5,2,0.8
			c0.6,0.2,1.3,0.5,1.9,0.7c0.6,0.2,1.2,0.5,1.8,0.7c0.6,0.2,1.1,0.4,1.7,0.7c0.5,0.2,1.1,0.4,1.5,0.6c0.5,0.2,0.9,0.4,1.4,0.6
			c0.4,0.2,0.8,0.4,1.2,0.6c0.4,0.2,0.7,0.4,1,0.5c0.3,0.2,0.5,0.3,0.7,0.5c0.2,0.1,0.4,0.3,0.5,0.4c0.1,0.1,0.2,0.2,0.3,0.3
			c0.1,0.1,0.1,0.2,0.1,0.3c0,0.1,0,0.2,0,0.2c0,0.1,0,0.1-0.1,0.2c0,0.1-0.1,0.2-0.1,0.3c-0.1,0.1-0.1,0.2-0.2,0.3
			c-0.1,0.1-0.2,0.2-0.4,0.4c-0.1,0.1-0.3,0.3-0.5,0.4c-0.2,0.2-0.4,0.3-0.7,0.5c-0.5,0.3-1.1,0.7-1.7,1.1c-0.7,0.4-1.4,0.7-2.2,1.1
			c-0.8,0.4-1.6,0.8-2.5,1.1c-0.9,0.4-1.8,0.8-2.7,1.1c-1.1,0.4-2.1,0.8-3.2,1.2c-1,0.4-2.1,0.8-3.1,1.2c-1,0.4-2,0.8-3,1.2
			c-1,0.4-2,0.8-2.9,1.1c-4,1.5-7.7,3-10.9,4.2c-3.3,1.3-6.2,2.4-8.6,3.3c-2.4,0.9-4.3,1.7-5.6,2.2c-1.3,0.5-2,0.8-2,0.8L68.4,70.5z
			"/>
		<path d="M161.6,13.4l-2.4-0.8c0,0-0.5,0.2-1.5,0.6c-1,0.4-2.4,1-4.3,1.8c-1.9,0.8-4.1,1.7-6.8,2.8c-2.6,1.1-5.6,2.3-8.9,3.7
			c-0.4,0.2-0.8,0.3-1.3,0.5c-0.4,0.2-0.8,0.4-1.3,0.5c-0.4,0.2-0.9,0.4-1.3,0.5c-0.4,0.2-0.9,0.4-1.3,0.6c-0.2,0.1-0.4,0.2-0.7,0.3
			c-0.2,0.1-0.5,0.2-0.7,0.3c-0.2,0.1-0.5,0.2-0.7,0.3c-0.2,0.1-0.5,0.2-0.7,0.3c-0.2,0.1-0.4,0.2-0.6,0.3c-0.2,0.1-0.4,0.2-0.6,0.3
			c-0.2,0.1-0.4,0.2-0.6,0.3c-0.2,0.1-0.4,0.2-0.6,0.3c-0.4,0.2-0.8,0.4-1.2,0.5c-0.4,0.2-0.7,0.4-1.1,0.6c-0.4,0.2-0.7,0.4-1,0.6
			c-0.3,0.2-0.7,0.4-1,0.6c-0.3,0.2-0.6,0.4-0.9,0.6c-0.3,0.2-0.5,0.4-0.7,0.5c-0.2,0.2-0.4,0.4-0.6,0.5c-0.2,0.2-0.3,0.3-0.5,0.5
			c-0.1,0.2-0.2,0.3-0.3,0.4c-0.1,0.1-0.1,0.3-0.1,0.4c0,0.1,0,0.2,0,0.3c0,0.1,0.1,0.2,0.1,0.3c0.1,0.1,0.1,0.2,0.2,0.2
			c0.1,0.1,0.2,0.2,0.3,0.3c0.1,0.1,0.3,0.2,0.5,0.3c0.2,0.1,0.4,0.2,0.7,0.4c0.2,0.1,0.4,0.2,0.6,0.3c0.2,0.1,0.5,0.2,0.8,0.3
			c0.3,0.1,0.6,0.2,0.9,0.3c0.3,0.1,0.6,0.2,1,0.4c0.1,0,0.2,0.1,0.4,0.1c0.1,0,0.2,0.1,0.4,0.1c0.1,0,0.3,0.1,0.4,0.1
			c0.1,0,0.3,0.1,0.4,0.1c0.5,0.2,1.1,0.4,1.7,0.5c0.6,0.2,1.2,0.4,1.8,0.6c0.6,0.2,1.3,0.4,1.9,0.6c0.7,0.2,1.3,0.4,2,0.6
			c0.4,0.1,0.9,0.3,1.3,0.4c0.5,0.1,0.9,0.3,1.4,0.4c0.5,0.2,0.9,0.3,1.4,0.5c0.5,0.2,0.9,0.3,1.4,0.5c0.3,0.1,0.6,0.2,0.8,0.3
			c0.3,0.1,0.6,0.2,0.8,0.3c0.3,0.1,0.6,0.2,0.8,0.3c0.3,0.1,0.6,0.2,0.9,0.3c0.8,0.3,1.6,0.6,2.3,1c0.8,0.4,1.5,0.7,2.3,1.1
			c0.8,0.4,1.5,0.8,2.2,1.3c0.7,0.5,1.3,1,1.9,1.5c0.3,0.3,0.6,0.5,0.8,0.8c0.3,0.3,0.5,0.5,0.7,0.8c0.2,0.3,0.4,0.6,0.6,0.9
			c0.2,0.3,0.3,0.6,0.5,0.9c0.1,0.3,0.2,0.6,0.3,0.9c0.1,0.3,0.1,0.6,0.2,0.9c0,0.3,0.1,0.6,0.1,0.9c0,0.3,0,0.6-0.1,0.9
			c-0.1,0.6-0.3,1.1-0.5,1.7c-0.2,0.5-0.5,1.1-0.8,1.6c-0.3,0.5-0.7,1-1.1,1.5c-0.4,0.5-0.8,0.9-1.3,1.3c-0.5,0.4-0.9,0.9-1.4,1.3
			c-0.5,0.4-1,0.8-1.5,1.2c-0.5,0.4-1.1,0.7-1.6,1.1c-0.5,0.4-1.1,0.7-1.6,1c-0.6,0.3-1.1,0.7-1.7,1c-0.6,0.3-1.1,0.6-1.7,0.9
			c-0.6,0.3-1.1,0.6-1.7,0.9c-0.6,0.3-1.1,0.6-1.7,0.9c-0.1,0.1-0.3,0.1-0.4,0.2c-0.1,0.1-0.3,0.1-0.4,0.2c-0.2,0.1-0.3,0.1-0.5,0.2
			c-0.2,0.1-0.3,0.1-0.5,0.2c-0.1,0.1-0.3,0.1-0.4,0.2c-0.1,0.1-0.3,0.1-0.4,0.2c-0.1,0.1-0.3,0.1-0.4,0.2c-0.1,0.1-0.3,0.1-0.4,0.2
			c-0.3,0.1-0.5,0.2-0.8,0.4c-0.3,0.1-0.5,0.2-0.8,0.4c-0.3,0.1-0.5,0.2-0.8,0.4c-0.3,0.1-0.5,0.2-0.8,0.3c-0.5,0.2-1,0.5-1.5,0.7
			c-0.5,0.2-1,0.4-1.5,0.7c-0.5,0.2-1,0.4-1.4,0.7c-0.5,0.2-0.9,0.4-1.4,0.6c-3.7,1.7-7.2,3.3-10.3,4.7c-3.1,1.4-5.8,2.7-8.1,3.7
			c-2.3,1-4,1.8-5.2,2.4c-1.2,0.6-1.9,0.9-1.9,0.9l3.7,1.5c0,0,0.6-0.3,1.9-0.9c1.2-0.6,3-1.4,5.2-2.4c2.2-1,4.9-2.3,8-3.7
			c3.1-1.4,6.5-3,10.2-4.7c0.5-0.2,0.9-0.4,1.4-0.7c0.5-0.2,0.9-0.4,1.4-0.7c0.5-0.2,1-0.4,1.4-0.7c0.5-0.2,1-0.5,1.5-0.7
			c0.3-0.1,0.5-0.2,0.8-0.4c0.3-0.1,0.5-0.2,0.8-0.4c0.3-0.1,0.5-0.2,0.8-0.4c0.3-0.1,0.5-0.2,0.8-0.4c0.1-0.1,0.3-0.1,0.4-0.2
			c0.1-0.1,0.3-0.1,0.4-0.2c0.1-0.1,0.3-0.1,0.4-0.2c0.1-0.1,0.3-0.1,0.4-0.2c0.2-0.1,0.3-0.2,0.5-0.2c0.2-0.1,0.3-0.2,0.5-0.2
			c0.2-0.1,0.3-0.2,0.5-0.2c0.2-0.1,0.3-0.1,0.4-0.2c0.6-0.3,1.2-0.6,1.8-0.9c0.6-0.3,1.2-0.6,1.8-1c0.6-0.3,1.2-0.7,1.8-1
			c0.6-0.3,1.2-0.7,1.7-1c0.6-0.4,1.1-0.7,1.7-1.1c0.6-0.4,1.1-0.8,1.7-1.2c0.5-0.4,1.1-0.8,1.6-1.3c0.5-0.4,1-0.9,1.5-1.4
			c0.5-0.5,1-1,1.4-1.5c0.4-0.5,0.8-1,1.2-1.6c0.4-0.5,0.7-1.1,0.9-1.7c0.2-0.6,0.4-1.2,0.5-1.8c0-0.3,0.1-0.6,0.1-1
			c0-0.3,0-0.7-0.1-1c0-0.3-0.1-0.7-0.2-1c-0.1-0.3-0.2-0.7-0.4-1c-0.2-0.3-0.3-0.7-0.5-1c-0.2-0.3-0.4-0.6-0.7-1
			c-0.3-0.3-0.5-0.6-0.8-0.9c-0.3-0.3-0.6-0.6-0.9-0.9c-0.7-0.6-1.4-1.1-2.2-1.6c-0.8-0.5-1.6-1-2.4-1.4c-0.8-0.4-1.7-0.9-2.5-1.2
			c-0.8-0.4-1.7-0.7-2.5-1.1c-0.3-0.1-0.6-0.2-0.8-0.3c-0.3-0.1-0.6-0.2-0.8-0.3c-0.3-0.1-0.6-0.2-0.8-0.3c-0.3-0.1-0.5-0.2-0.8-0.3
			c-0.5-0.2-1-0.4-1.6-0.5c-0.5-0.2-1-0.3-1.5-0.5c-0.5-0.2-1-0.3-1.5-0.5c-0.5-0.2-1-0.3-1.4-0.4c-0.7-0.2-1.4-0.4-2.1-0.6
			c-0.7-0.2-1.3-0.4-1.9-0.6c-0.6-0.2-1.2-0.4-1.8-0.5c-0.6-0.2-1.1-0.3-1.6-0.5c-0.2-0.1-0.4-0.1-0.5-0.2c-0.2-0.1-0.3-0.1-0.5-0.2
			c-0.2-0.1-0.3-0.1-0.5-0.2c-0.2-0.1-0.3-0.1-0.5-0.2c-0.3-0.1-0.5-0.2-0.7-0.3c-0.2-0.1-0.4-0.2-0.6-0.2c-0.2-0.1-0.4-0.1-0.5-0.2
			c-0.2-0.1-0.3-0.1-0.4-0.2c-0.1,0-0.2-0.1-0.3-0.1c-0.1,0-0.2-0.1-0.2-0.1c-0.1,0-0.1-0.1-0.2-0.1c0,0-0.1,0-0.1-0.1
			c0,0,0,0-0.1,0s0,0-0.1,0c0,0,0,0-0.1,0s0,0,0,0c0,0,0,0,0,0c0,0,0,0,0,0c0,0,0,0,0,0c0,0,0,0,0,0c0,0,0,0,0,0s0,0,0,0s0,0,0,0
			c0,0,0,0,0,0c0,0,0,0-0.1,0c0,0,0,0-0.1,0c0,0,0,0,0-0.1c0,0,0-0.1,0-0.1c0,0,0-0.1,0-0.1c0,0,0-0.1,0-0.1c0,0,0-0.1,0.1-0.2
			c0-0.1,0.1-0.1,0.1-0.2c0.1-0.1,0.2-0.3,0.3-0.4c0.1-0.1,0.3-0.3,0.5-0.5c0.2-0.2,0.4-0.3,0.6-0.5c0.2-0.2,0.5-0.3,0.8-0.5
			c0.3-0.2,0.6-0.3,0.9-0.5c0.3-0.2,0.6-0.4,0.9-0.5c0.3-0.2,0.7-0.4,1-0.5c0.4-0.2,0.7-0.4,1.1-0.5c0.2-0.1,0.4-0.2,0.6-0.3
			c0.2-0.1,0.4-0.2,0.6-0.3c0.2-0.1,0.4-0.2,0.6-0.3c0.2-0.1,0.4-0.2,0.6-0.3c0.2-0.1,0.5-0.2,0.7-0.3c0.2-0.1,0.5-0.2,0.7-0.3
			c0.2-0.1,0.5-0.2,0.7-0.3c0.2-0.1,0.4-0.2,0.7-0.3c0.4-0.2,0.9-0.4,1.3-0.6c0.4-0.2,0.9-0.4,1.3-0.5c0.4-0.2,0.9-0.4,1.3-0.5
			c0.4-0.2,0.8-0.3,1.2-0.5c3.3-1.4,6.2-2.6,8.8-3.7c2.6-1.1,4.9-2,6.7-2.8c1.8-0.8,3.3-1.4,4.3-1.8
			C161.1,13.6,161.6,13.4,161.6,13.4"/>
		<path d="M111.8,68.2l-3.6-1.4L98,71.1l3.6,1.4L111.8,68.2 M129.7,60.5l-3.8-1.2c-0.5,0.2-0.9,0.4-1.4,0.7c-0.5,0.2-1,0.5-1.5,0.7
			c-0.5,0.2-1.1,0.5-1.6,0.7c-0.6,0.2-1.1,0.5-1.7,0.7l-3.2,1.4l3.6,1.4l3.2-1.4c0.6-0.3,1.2-0.5,1.8-0.8c0.6-0.3,1.1-0.5,1.7-0.8
			c0.5-0.2,1.1-0.5,1.6-0.7C128.7,60.9,129.2,60.7,129.7,60.5 M140.9,51l-4.8-0.1c-0.1,0.3-0.2,0.7-0.4,1.1
			c-0.2,0.4-0.4,0.7-0.8,1.1c-0.3,0.4-0.7,0.8-1.2,1.2c-0.5,0.4-1.1,0.9-1.7,1.3l4.3,0.9c0.7-0.5,1.4-1,1.9-1.5c0.5-0.5,1-1,1.4-1.4
			c0.4-0.5,0.7-0.9,0.9-1.4C140.7,51.9,140.9,51.4,140.9,51 M129.8,42l-3.4,1.3c0.8,0.3,1.6,0.6,2.4,0.9c0.8,0.3,1.5,0.6,2.1,1
			c0.7,0.3,1.3,0.7,1.8,1c0.6,0.3,1.1,0.7,1.5,1l4.3-0.8c-0.5-0.4-1.1-0.8-1.8-1.2c-0.7-0.4-1.4-0.8-2.1-1.1
			c-0.7-0.4-1.5-0.7-2.4-1.1C131.5,42.6,130.7,42.3,129.8,42 M112.9,35.6l-3.9,1c0.5,0.3,1,0.5,1.5,0.8c0.5,0.3,1.1,0.5,1.7,0.7
			c0.6,0.2,1.2,0.5,1.8,0.7c0.6,0.2,1.2,0.5,1.9,0.7c0.2,0.1,0.4,0.2,0.7,0.2c0.2,0.1,0.4,0.2,0.7,0.2c0.2,0.1,0.4,0.2,0.7,0.2
			c0.2,0.1,0.4,0.2,0.7,0.2l3.2-1.3c-0.2-0.1-0.4-0.2-0.7-0.2c-0.2-0.1-0.4-0.2-0.6-0.2c-0.2-0.1-0.4-0.1-0.6-0.2
			c-0.2-0.1-0.4-0.2-0.6-0.2c-0.6-0.2-1.2-0.4-1.8-0.7c-0.6-0.2-1.1-0.4-1.6-0.7c-0.5-0.2-1-0.4-1.5-0.7
			C113.8,36,113.3,35.8,112.9,35.6 M111.7,28l-4.1-0.7c-0.6,0.5-1.2,0.9-1.6,1.4c-0.4,0.5-0.8,0.9-1,1.3c-0.2,0.4-0.4,0.9-0.4,1.3
			c-0.1,0.4,0,0.8,0.1,1.2l4.6-0.3c-0.1-0.3-0.1-0.6-0.1-1c0-0.3,0.1-0.7,0.3-1c0.2-0.4,0.5-0.7,0.8-1.1
			C110.7,28.8,111.2,28.4,111.7,28 M125.9,21.3l-3.3-1.1l-2.8,1.1c-0.6,0.2-1.1,0.4-1.7,0.7c-0.5,0.2-1.1,0.4-1.6,0.6
			c-0.5,0.2-1,0.4-1.5,0.6c-0.5,0.2-0.9,0.4-1.4,0.6l3.6,1c0.4-0.2,0.8-0.4,1.3-0.6c0.4-0.2,0.9-0.4,1.4-0.6c0.5-0.2,1-0.4,1.5-0.6
			c0.5-0.2,1.1-0.4,1.6-0.6L125.9,21.3 M141.9,15.2l-3.3-1.1l-8.8,3.4l3.3,1.1L141.9,15.2"/>
		<polyline points="93.3,76 89.7,74.6 84.2,76.9 87.8,78.3 93.3,76 		"/>
		<polyline points="153.4,10.7 148.9,12.5 145.7,11.4 150.2,9.7 153.4,10.7 		"/>
	</g>
</g>
</svg>
