<?xml version="1.0" encoding="utf-8"?>
<svg version="1.1" xmlns="http://www.w3.org/2000/svg" xmlns:xlink="http://www.w3.org/1999/xlink" x="0px" y="0px"
	 viewBox="0 0 230 85" style="enable-background:new 0 0 230 85;" xml:space="preserve">
<g>
	<g>
		<path d="M159.6,32.4c-1,0-1.9,0.4-2.5,1.1l0.2,0.5l-1.7,1l-1.4,1.6l0.1-0.4c-0.5-0.1-1-0.1-1.5-0.2l0.5-1.4l-1.1-2.7l-1.6-2
			l-5.5,0.9l-5.4-0.9l-1.6,2l-1.1,2.7l0.5,1.4c-0.6,0.1-1.2,0.2-1.8,0.2l0,0.1l0,0l0.2,1.5c0,0,0,0,0,0l0.1,0.7l0,0l0,0.2l-1.2,0.9
			l0.6,1.5l0,0l0.4,0.9l-1.7,5.7l-0.2,0.6l0.1,3.2l0.7,0.9l0.2-0.3l0.2-0.6l-0.1-3l0.1-0.5l1.4-4.5l1.8,4.4l0.2,0.5l1.1,0.5l0.9,1.2
			l4.7,1l4.7-1l0.9-1.2l1.1-0.5l1.5-4l0.4,1.6l0.6,2.6v3.1l0.3,0.7l1.7,1.8v1.1l-0.8,0.5H153l-1,0.6l-2,4.1l-0.1,0.5v2.5v0.4
			l-0.3,0.1l-1.4,0.3l-0.2,0.3v-3l0.1,0l-0.4-8.3l-1,0l0.2,5.7c-0.4-0.2-0.8-0.4-1.2-0.4h-0.9c-0.5,0-0.9,0.1-1.2,0.4l0.2-5.7l-1,0
			l-0.3,8.3l0.1,0v3l-0.2-0.2l-0.1,0l-1.4-0.3l-0.4-0.1v-0.4v-1.9l-0.1-0.5l-2.2-4.7l-1-0.6h-1.1v1.1h1.1l2.2,4.7v1.9v1.3l1.3,0.2
			l1.4,0.3l0.1,0l0.2,6.6c0,1.1,1.3,2.1,3,2.1s3-0.9,3-2.1l0.2-6.6l1.4-0.3l1.2-0.2v-1.3V61l2-4.1h2.8l1.7-0.9v-2.2l-2-2.2v-3.2
			l-0.7-2.7l-0.8-3.1l0.6-1.5l0.6-1.5l-1.4-1l0.1-0.8c2.6,0.4,4.5,0.8,4.5,0.8l0.2-1c0,0-1.7-0.4-4.1-0.8l1.2-1.3l1.6-0.9l0.2,0.4
			l1.5,0.6l1.6-0.7l1.3-1.5C161.5,32.7,160.6,32.4,159.6,32.4z M154,40l-0.9,2.2l0,0.2l-2,5.2l0,0.1l-0.9,0.4l-0.8,1.1l-4.1,0.9
			l-4.1-0.9l-0.8-1.1l-1-0.4l-2.5-5.9l0-0.2l-0.6-1.6l1.1-0.8l-0.3-2c0.3,0,0.3-0.1,0.6-0.1l0.9-1.5l-0.4-1l0.8-2.1l1.1-1.3l4.8,0.8
			h0.4l4.8-0.8l1.1,1.3l0.8,2.1l-0.4,1l0.9,1.5l0.3,0c0.2,0-0.1,2-0.1,2L154,40z"/>
		<polygon
			points="141.9,46.5 140,44.8 139.7,43.3 139.1,41.9 139.3,40.7 141.2,41.5 143.4,43.7 143.8,46.8 		"/>
		<polygon
			points="150.6,43.3 150.3,44.8 148.4,46.5 146.4,46.8 146.8,43.7 149.1,41.5 150.9,40.7 151.2,41.9 		"/>
		<path d="M94.4,55.8h-1.6l-1,0.6l-2,4.1L89.7,61v2.5v0.4L89.3,64l-1.4,0.3l-0.2,0.3v-3l0.1,0l-0.3-8.3l-1,0l0.2,5.7
			c-0.4-0.2-0.8-0.4-1.2-0.4h-0.9c-0.5,0-0.9,0.1-1.2,0.4l0.2-5.7l-1,0l-0.3,8.3l0.1,0v3l-0.2-0.2l-0.1,0L80.4,64l-0.4-0.1v-0.4
			v-1.9L80,61.1l-2.2-4.7l-1-0.6h-2.6l-0.6-0.4v-1.2l1.2-1.9l0.2-0.6l-0.1-3l0.1-0.5l1.4-4.5l1.8,4.4l0.2,0.5l1.1,0.5l0.9,1.2l4.7,1
			l4.7-1l0.9-1.2l1.1-0.5l1.5-4l0.4,1.6l0.6,2.6v3.1l0.3,0.7l0.6,0.7l0.6-0.9l-0.4-0.5v-3.2l-0.7-2.7l-0.8-3.1l0.5-1.4l0.6-1.6
			l-1.4-1l0.1-0.8c0,0,0,0,0,0l0.2-1.2l0,0l0.1-0.4c-0.5-0.1-1-0.1-1.5-0.2l0.5-1.4L92,32l-1.6-2l-5.5,0.9L79.5,30l-1.6,2l-1.1,2.7
			l0.5,1.4c-0.6,0.1-1.2,0.2-1.8,0.2l0,0.1L74.4,35l-1.7-1l0.3-0.6c-0.6-0.7-1.5-1.1-2.5-1.1c-1,0-1.9,0.4-2.6,1.1l1.3,1.5l1.6,0.6
			l1.5-0.6l0.2-0.4l1.6,0.9l1.2,1.3c-2.5,0.4-4.2,0.8-4.2,0.8l0.2,1c0,0,1.9-0.4,4.5-0.8l0.1,0.9l-1.2,0.9l0.6,1.5l0,0l0.4,0.9
			l-1.7,5.7l-0.2,0.6l0.1,3.2l-1.4,2.2V56l1.4,0.9h2.9l2.2,4.7v1.9v1.3l1.3,0.2l1.4,0.3l0.1,0l0.2,6.6c0,1.1,1.3,2.1,3,2.1
			s3-0.9,3-2.1l0.2-6.6l1.4-0.3l1.2-0.2v-1.3V61l2-4.1h1.6V55.8z M76.8,37.2c0.3,0,0.3-0.1,0.6-0.1l0.9-1.5l-0.4-1l0.8-2.1l1.1-1.3
			l4.8,0.8h0.4l4.8-0.8l1.1,1.3l0.8,2.1l-0.4,1l0.9,1.5l0.3,0c0.2,0-0.1,2-0.1,2l1.2,0.9l-0.9,2.2l0,0.2l-2,5.2l0,0.1l-0.9,0.4
			l-0.8,1.1l-4.1,0.9L81,49.2l-0.8-1.1l-1-0.4l-2.5-5.9l0-0.2L76.1,40l1.1-0.8L76.8,37.2z"/>
		<polygon points="81.6,46.5 79.7,44.8 79.4,43.3 78.8,41.9 79.1,40.7 80.9,41.5 83.2,43.7 83.6,46.8 		"/>
		<polygon points="90.3,43.3 90,44.8 88.1,46.5 86.2,46.8 86.6,43.7 88.8,41.5 90.7,40.7 90.9,41.9 		"/>
		<path d="M131.3,51.5h-0.5v-4.8l-1.5-6.3l-2.2,5.7l-0.2,0.6l-0.6,0.3l-1.3,0.6l-1.3,1.7l-0.4,0.5l-0.6,0.1l-7.3,1.6l-0.3,0.1
			l-0.3-0.1l-7.3-1.6l-0.6-0.1l-0.4-0.5l-1.3-1.6l-1.4-0.6l-0.6-0.3l-0.2-0.6l-2.7-6.3l-2.1,6.9v4.8h0.2l-2.1,3.2V58l2.1,1.4h4.3
			l3.4,7v2.9v2l1.9,0.4l2.1,0.4l0.1,0l0.3,9.8c0,1.7,2,3.1,4.4,3.1s4.4-1.4,4.4-3.1L120,72l2.2-0.4l1.8-0.4v-2v-3.7l3.1-6.2h4.3
			l2.5-1.4v-3.3L131.3,51.5z M111.5,54.4c-1,0.8-2.6,2.2-2.9,3.8c0.7-0.4,1.7-0.7,2.5-1c-0.1,0.3-0.2,0.5-0.2,0.8l-0.4,11.7l-2-0.3
			V58.4h-1v-6.8v0l3.9,0.8V54.4z M123,51.6v6.8h-1v10.9l-2,0.3l-0.4-11.7c0-0.3-0.1-0.5-0.2-0.8c0.8,0.3,1.8,0.6,2.5,1
			c-0.3-1.6-1.9-3-2.9-3.8v-2.1L123,51.6L123,51.6z"/>
		<path d="M140.8,24.2L140.8,24.2c-0.9-1.1-2.3-1.6-3.9-1.6s-3.8,1.6-3.8,1.6l0.4,0.9l-2.6,1.5l-2.1,2.3l0.1-0.5
			c-0.8-0.1-1.5-0.2-2.3-0.3l0.8-2.1l-1.6-4l-2.4-2.9l-8.2,1.4l-8.1-1.4l-2.4,2.9l-1.6,4l0.8,2c-0.9,0.1-1.7,0.2-2.6,0.4l0,0.2
			l-1.8-1.9L96.9,25l0.4-0.9c-0.9-1.1-2.2-1.6-3.8-1.6c-1.5,0-2.9,0.5-3.9,1.6l0,0l0,0l0,0l0,0l1.9,2.3l2.4,1l2.3-0.9l0.4-0.7
			l2.5,1.3l1.8,2c-3.7,0.6-6.3,1.1-6.4,1.1l0.3,1.6c0.1,0,2.8-0.6,6.8-1.2l0.1,0.8c0.4-0.1,0.8-0.1,1.2-0.2l-2.9,2.1l4.7,12.1
			l1.7,0.8l1.5,2l7.3,1.6l7.3-1.6l1.5-2l1.7-0.8l4.7-12.1l-2.8-2.1c0.3,0,0.5,0.1,0.8,0.1l0.1-0.8c4,0.6,6.7,1.2,6.8,1.2l0.4-1.6
			c-0.1,0-2.5-0.6-6.1-1.1l1.8-2l2.5-1.3l0.4,0.7l2.3,0.9l2.4-1L140.8,24.2L140.8,24.2L140.8,24.2L140.8,24.2z M109.6,46.8l-3.3-2.9
			l-0.5-2.6l-1-2.4l0.5-2.2l3.2,1.4l3.9,3.9l0.7,5.3L109.6,46.8z M124.7,41.3l-0.5,2.6l-3.3,2.9l-3.4,0.5l0.7-5.3l3.9-3.9l3.2-1.4
			l0.5,2.2L124.7,41.3z"/>
	</g>
</g>
	<g>
</g>
</svg>
