<?xml version="1.0" encoding="utf-8"?>
<svg version="1.1" xmlns="http://www.w3.org/2000/svg" xmlns:xlink="http://www.w3.org/1999/xlink" x="0px" y="0px"
	 viewBox="0 0 230 85" style="enable-background:new 0 0 230 85;" xml:space="preserve">
<g>
</g>
	<g>
	<g>
		<path d="M105.4,81.5h5V65.6v-0.2v-1.2V52.7v-1.2h0.1l-0.2-9.5c2-0.3,3.1-1,3.1-2c0-0.3-0.1-0.7-0.6-1.1c0.5-0.4,0.6-0.8,0.6-1.1
			c0-0.4-0.2-0.8-0.7-1.2c0.5-0.4,0.7-0.8,0.7-1.2c0-0.7-0.6-1.2-1.3-1.5c0.8-0.3,1.3-0.8,1.3-1.5v-4.1c0-1.1-1.3-1.6-2.5-1.9
			c0.8-0.4,0.5-0.9,0.5-1.5c0-0.9-0.7-1.5-1.8-1.8l0-1.6c0.5-0.3,0.6-0.9,0.6-1.1c0-0.2-0.1-0.8-0.7-1.1l0-0.1
			c0.3-0.3,0.3-0.6,0.3-0.8c0-0.2,0-0.5-0.3-0.8l-0.1-3.9c0.3-0.4,0.4-0.8,0.4-1.3c0-0.5-0.2-1-0.4-1.4l0-2.4
			c0.1-0.2,0.1-0.4,0.1-0.5V6.8c0-0.1,0-0.3-0.2-0.6l-0.1-5.2c0-0.6-0.4-1.1-0.9-1.1h-0.3c-0.5,0-0.9,0.5-0.9,1.1l-0.1,5.2
			c-0.2,0.2-0.2,0.5-0.2,0.6V8c0,0.1,0,0.3,0.1,0.5l0,2.4c-0.3,0.4-0.4,0.9-0.4,1.4c0,0.5,0.1,1,0.4,1.3l-0.1,3.9
			c-0.3,0.3-0.3,0.7-0.3,0.8c0,0.2,0,0.5,0.3,0.8l0,0.1c-0.6,0.3-0.7,0.9-0.7,1.1c0,0.2,0.1,0.7,0.6,1.1l0,1.6
			c-1.1,0.3-1.8,1-1.8,1.8c0,0.6-0.3,1.2,0.5,1.5c-1.2,0.3-2.5,0.8-2.5,1.9v4.1c0,0.7,0.6,1.2,1.3,1.5c-0.8,0.3-1.3,0.8-1.3,1.5
			c0,0.4,0.2,0.8,0.7,1.2c-0.5,0.4-0.7,0.8-0.7,1.2c0,0.3,0.1,0.7,0.6,1.1c-0.5,0.4-0.6,0.8-0.6,1.1c0,1,1.1,1.7,3.1,2L105.4,81.5z
			 M104.1,74.3l0-1.6h-3.1l0.3,2.4h-1.1l-1-2.4h-8.1l1.6,2.4H76.9c1.4-1.8,3.7-5,4.1-5.5c0.9-1.3,0-2.1-1.3-3.1
			c-0.6-0.5-1.4-1.2-2.1-1.8c-1-0.9-2-1.7-2.6-2.2c-0.3-0.2-0.7-0.8-0.6-1.2c0.2-0.7,1.9-1.5,5.8-1.6c5.1-0.2,16.3,0.8,24.1,1.5
			l0-1.6c-7.8-0.7-18.9-1.6-24.2-1.5c-4.3,0.1-6.7,1-7.2,2.7c-0.4,1.2,0.3,2.4,1.1,3c0.6,0.5,1.6,1.3,2.6,2.2
			c0.8,0.7,1.6,1.3,2.2,1.8c0.3,0.3,0.8,0.7,1,0.9c0,0,0,0,0,0c-0.5,0.7-5,6.7-5,6.7l-1,1.3h22l-1.6-2.4h4l1,2.4h4l-0.3-2.4H104.1z"
		/>
		<path d="M98.7,34.4l4-0.9c-0.3-0.4-0.4-0.9-0.4-1.2V32l-5.2,1.1v24.2h1.6V34.4z"/>
		<path d="M117.3,44.7c0.4-0.1,1-0.1,1.6-0.1V28.4l-4.6,1V31l3-0.7V44.7z"/>
		<path d="M145.8,31.9v5.6L145,38v11.8h-3.6V28.3l-5.7-2.9v1.4l-3.3-1.2l-2.8,4.8v8.1l-4.8-2.2v8.2c0.6,0,1.1,0,1.6,0v-5.7l3.2,1.4
			v4.4c0.6,0.1,1,0.2,1.3,0.3l0.7,0.3v0.7v0.5v0.6l-0.5,0.4h0.7h1.2v1.2v2.7h2.4h1.2v1.2v11.5v1.2v0.2v15.1h4.9V71h3.6v9.7h12.2
			V37.1L145.8,31.9z M145,67.8h-3.6V52h3.6V67.8z M155,78.3h-1.5l0.1-37.8l-5.2-2.2l0.6-1.3l6.1,2.7V78.3z"/>
		<path d="M135.3,64.2V52.7h-3.8l0.2-0.6v-3.3h-0.9l-0.4,0.7h-0.8v-2.3l0.7-0.5v-0.5c0,0-0.7-0.4-6.8-0.4c-6.1,0-6.8,0.4-6.8,0.4
			v0.5l0.7,0.5v2.3h-0.5l-0.4-0.7h-1.3v3.3l0.5,0.6h-4.1v11.5h0.9l1,1.4h-2v17.9h0.9l0.9,0.9V85h20.1v-0.5l1.2-0.9h0.6V65.6h-1.6
			l1-1.4H135.3z M115.3,82.7h-1.6v-1.6h1.6V82.7z M115.3,80.3h-1.6v-1.6h1.6V80.3z M115.3,77.8h-1.6v-1.6h1.6V77.8z M115.3,75.4
			h-1.6v-1.6h1.6V75.4z M115.3,72.9h-1.6v-1.6h1.6V72.9z M115.3,70.5h-1.6v-1.6h1.6V70.5z M115.3,68h-1.6v-1.6h1.6V68z M115.3,63.4
			h-1.6v-1.6h1.6V63.4z M115.3,60.6h-1.6V59h1.6V60.6z M115.3,57.9h-1.6v-1.6h1.6V57.9z M115.3,55.1h-1.6v-1.6h1.6V55.1z
			 M117.7,82.7h-1.6v-1.6h1.6V82.7z M117.7,80.3h-1.6v-1.6h1.6V80.3z M117.7,77.8h-1.6v-1.6h1.6V77.8z M117.7,75.4h-1.6v-1.6h1.6
			V75.4z M117.7,72.9h-1.6v-1.6h1.6V72.9z M117.7,70.5h-1.6v-1.6h1.6V70.5z M117.7,68h-1.6v-1.6h1.6V68z M117.7,63.4h-1.6v-1.6h1.6
			V63.4z M117.7,60.6h-1.6V59h1.6V60.6z M117.7,57.9h-1.6v-1.6h1.6V57.9z M117.7,55.1h-1.6v-1.6h1.6V55.1z M120,82.7h-1.6v-1.6h1.6
			V82.7z M120,80.3h-1.6v-1.6h1.6V80.3z M120,77.8h-1.6v-1.6h1.6V77.8z M120,75.4h-1.6v-1.6h1.6V75.4z M120,72.9h-1.6v-1.6h1.6V72.9
			z M120,70.5h-1.6v-1.6h1.6V70.5z M120,68h-1.6v-1.6h1.6V68z M120,63.4h-1.6v-1.6h1.6V63.4z M120,60.6h-1.6V59h1.6V60.6z M120,57.9
			h-1.6v-1.6h1.6V57.9z M120,55.1h-1.6v-1.6h1.6V55.1z M122.4,82.7h-1.6v-1.6h1.6V82.7z M122.4,80.3h-1.6v-1.6h1.6V80.3z
			 M122.4,77.8h-1.6v-1.6h1.6V77.8z M122.4,75.4h-1.6v-1.6h1.6V75.4z M122.4,72.9h-1.6v-1.6h1.6V72.9z M122.4,70.5h-1.6v-1.6h1.6
			V70.5z M122.4,68h-1.6v-1.6h1.6V68z M122.4,63.4h-1.6v-1.6h1.6V63.4z M122.4,60.6h-1.6V59h1.6V60.6z M122.4,57.9h-1.6v-1.6h1.6
			V57.9z M122.4,55.1h-1.6v-1.6h1.6V55.1z M126.2,82.7h-1.6v-1.6h1.6V82.7z M126.2,80.3h-1.6v-1.6h1.6V80.3z M126.2,77.8h-1.6v-1.6
			h1.6V77.8z M126.2,75.4h-1.6v-1.6h1.6V75.4z M126.2,72.9h-1.6v-1.6h1.6V72.9z M126.2,70.5h-1.6v-1.6h1.6V70.5z M126.2,68h-1.6
			v-1.6h1.6V68z M126.2,63.4h-1.6v-1.6h1.6V63.4z M126.2,60.6h-1.6V59h1.6V60.6z M126.2,57.9h-1.6v-1.6h1.6V57.9z M126.2,55.1h-1.6
			v-1.6h1.6V55.1z M128.6,82.7H127v-1.6h1.6V82.7z M128.6,80.3H127v-1.6h1.6V80.3z M128.6,77.8H127v-1.6h1.6V77.8z M128.6,75.4H127
			v-1.6h1.6V75.4z M128.6,72.9H127v-1.6h1.6V72.9z M128.6,70.5H127v-1.6h1.6V70.5z M128.6,68H127v-1.6h1.6V68z M128.6,63.4H127v-1.6
			h1.6V63.4z M128.6,60.6H127V59h1.6V60.6z M128.6,57.9H127v-1.6h1.6V57.9z M128.6,55.1H127v-1.6h1.6V55.1z M131,82.7h-1.6v-1.6h1.6
			V82.7z M131,80.3h-1.6v-1.6h1.6V80.3z M131,77.8h-1.6v-1.6h1.6V77.8z M131,75.4h-1.6v-1.6h1.6V75.4z M131,72.9h-1.6v-1.6h1.6V72.9
			z M131,70.5h-1.6v-1.6h1.6V70.5z M131,68h-1.6v-1.6h1.6V68z M131,63.4h-1.6v-1.6h1.6V63.4z M131,60.6h-1.6V59h1.6V60.6z M131,57.9
			h-1.6v-1.6h1.6V57.9z M131,55.1h-1.6v-1.6h1.6V55.1z M133.4,82.7h-1.6v-1.6h1.6V82.7z M133.4,80.3h-1.6v-1.6h1.6V80.3z
			 M133.4,77.8h-1.6v-1.6h1.6V77.8z M133.4,75.4h-1.6v-1.6h1.6V75.4z M133.4,72.9h-1.6v-1.6h1.6V72.9z M133.4,70.5h-1.6v-1.6h1.6
			V70.5z M133.4,68h-1.6v-1.6h1.6V68z M133.4,63.4h-1.6v-1.6h1.6V63.4z M133.4,60.6h-1.6V59h1.6V60.6z M133.4,57.9h-1.6v-1.6h1.6
			V57.9z M133.4,55.1h-1.6v-1.6h1.6V55.1z"/>
	</g>
</g>
</svg>
