<?xml version="1.0" encoding="utf-8"?>
<svg version="1.1" xmlns="http://www.w3.org/2000/svg" xmlns:xlink="http://www.w3.org/1999/xlink" x="0px" y="0px"
	 viewBox="0 0 230 85" style="enable-background:new 0 0 230 85;" xml:space="preserve">
<g>
</g>
	<g>
	<g>
		<path d="M118.2,48.3c0,0,0.2,0,0.6-0.1c0.4-0.1,1-0.1,1.8-0.2c0.8,0,1.8-0.1,2.8-0.1c1.1,0,2.3,0,3.7,0.1c1.4,0.1,2.9,0.3,4.4,0.8
			c1.5,0.4,3.1,1,4.7,2c1.5,0.9,3,2.2,4.1,3.8c0.6,0.8,1,1.7,1.3,2.6c0.3,0.9,0.5,1.9,0.5,2.9c0.1,1.9-0.2,3.8-0.7,5.6
			c-0.5,1.8-1.2,3.4-2,5c-0.8,1.5-1.7,2.9-2.6,4.2c-0.9,1.3-1.8,2.4-2.7,3.4c-1.7,2.1-3.3,3.7-4.3,4.8c-1,1.2-1.6,1.8-1.6,1.8l0,0
			c0,0-0.1,0-0.1,0c0,0,0-0.1,0-0.1c0,0,0.5-0.7,1.5-1.9c0.9-1.2,2.4-3,4-5.1c1.6-2.1,3.4-4.7,4.9-7.6c0.7-1.5,1.4-3.1,1.8-4.8
			c0.4-1.7,0.7-3.5,0.6-5.2c-0.1-1.8-0.7-3.5-1.6-4.9c-0.9-1.5-2.3-2.6-3.7-3.5c-2.8-1.7-5.9-2.4-8.6-2.8c-2.6-0.3-4.9-0.5-6.4-0.6
			c-1.6-0.1-2.4-0.1-2.4-0.1C118.2,48.4,118.2,48.4,118.2,48.3C118.2,48.3,118.2,48.3,118.2,48.3L118.2,48.3z"/>
		<path d="M88.8,47.3c0-0.6,0-1.2,0.1-1.8c0.1-0.5,0.1-1.1,0.2-1.6c0.1-0.5,0.2-1,0.3-1.5c0.1-0.5,0.3-1,0.4-1.5
			c0.5-1.7,1-3.3,1.5-4.9c0,0.1-0.1,0.1-0.1,0.2c-0.9,1.2-1.9,2.6-2.8,3.7c-0.9,1.2-1.9,2.4-2.9,3.6c-4,4.8-8.2,9.5-12.5,14.2
			c-2.1,2.3-4.3,4.6-6.5,6.9l-1.9,2h8.2c1.5-1.6,3-3.3,4.5-4.9c3.9-4.4,7.8-8.9,11.6-13.5C88.8,47.9,88.8,47.6,88.8,47.3z"/>
		<path d="M92.6,46.5c0.1,1.3,0.5,3.4,1.7,4.8c1.1,1.4,2.6,2.4,4.1,3.1c3.1,1.4,6.2,2,9.5,2.4l0.6,0.1l0.1,0c0.1,0-0.1,0,0.2,0l0,0
			l0.1,0l0.3,0l1.1,0c0.8,0,1.5,0.1,2.3,0.1c1.5,0.1,3,0.2,4.5,0.3c3,0.3,6,0.7,8.5,1.5c1.3,0.4,2.4,0.9,3.2,1.4
			c0.4,0.3,0.7,0.5,0.8,0.7c0.1,0.2,0.2,0.4,0.2,0.6c0.1,0.4-0.1,1.3-0.5,2.2c-0.4,1-1,2-1.6,3c-1.3,2-2.8,3.9-4.3,5.6
			c-2.9,3.4-5.6,6.2-7.4,8.1c-1.9,2-2.9,3.1-2.9,3.1l0,0c-0.1,0.1-0.1,0.1-0.2,0.2c-0.1,0.1-0.2,0.2-0.2,0.3h11.4
			c1.6-1.8,3.4-4.1,5.5-6.8c1.5-1.9,3-4.1,4.5-6.6c0.7-1.3,1.5-2.7,2.1-4.3c0.3-0.8,0.5-1.7,0.7-2.8c0.1-1,0.2-2.2-0.1-3.4
			c-0.3-1.2-0.9-2.4-1.6-3.4c-0.8-1-1.7-1.6-2.6-2.2c-1.8-1.1-3.5-1.6-5.2-2c-3.4-0.8-6.6-1-9.8-1.2c-1.6-0.1-3.2-0.1-4.8-0.1
			c-0.3,0-0.6,0-0.9,0v0c-7,0-16.9,0.1-13.9-9.5c2.3-8.1,4.5-11.8,8.6-18.2c0,0,0,0,0,0c1.1-1.6,2.1-3.3,3.1-4.9
			c4.4,6.6,8.7,13.3,13.2,19.9l1.8,2.6l1.6-2.7l3.5-5.9c4.5,6.4,9.2,12.7,14.1,18.8l1.4,1.8l1-2l1.4-2.8c3.4,3.9,6.9,7.6,10.5,11.3
			c2.3,2.3,4.6,4.7,6.9,7h0.7c-2.3-2.6-4.5-5.2-6.7-7.8c-3.7-4.4-7.3-8.8-10.7-13.4l-1-1.4l-1,1.6l-1.4,2.3
			c-4.8-6.4-9.3-13.1-13.7-19.8l-1.5-2.4l-1.6,2.5l-3.5,5.5c-4.3-6.9-8.6-13.9-12.9-20.8l-2-3.2l0,0.1c0,0,0,0,0,0
			c0,0.1-0.1,0.1-0.1,0.2l-2,3l0,0c-2.2,3.4-4.5,6.8-6.7,10.1c-2.2,3.9-4.2,7.9-5.7,11.9c-0.1,0.5-0.3,0.9-0.4,1.4
			c-0.5,1.8-1.3,4.2-1.4,5.3C92.9,42.6,92.5,45.3,92.6,46.5z"/>
	</g>
</g>
</svg>
